<svg width="1406" height="1406" viewBox="0 0 1406 1406" fill="none" xmlns="http://www.w3.org/2000/svg">
  <defs>
    <radialGradient id="paint0_radial_2898_1441" cx="0" cy="0" r="1" gradientUnits="userSpaceOnUse" gradientTransform="translate(166.054 1082.59) rotate(-59.7137) scale(1524.13)">
      <stop stop-color="#E4FD5D"/>
      <stop offset="1" stop-color="#71F7EB"/>
    </radialGradient>
  </defs>
  <rect x="1.53763" y="1.53763" width="1402.92" height="1402.92" rx="701.462" fill="url(#paint0_radial_2898_1441)"/>
  <rect x="1.53763" y="1.53763" width="1402.92" height="1402.92" rx="701.462" stroke="white" stroke-width="3.07525"/>
  <path d="M703.135 146.594C1010.51 146.594 1259.68 395.758 1259.68 703.135C1259.68 1010.51 1010.51 1259.68 703.135 1259.68C395.758 1259.68 146.595 1010.51 146.594 703.135C146.594 395.758 395.758 146.594 703.135 146.594ZM703.135 246.227C581.956 246.227 465.739 294.365 380.052 380.052C294.366 465.739 246.227 581.956 246.227 703.135C246.227 824.315 294.366 940.531 380.052 1026.22C465.739 1111.91 581.956 1160.04 703.135 1160.04C824.315 1160.04 940.532 1111.91 1026.22 1026.22C1111.91 940.531 1160.04 824.315 1160.04 703.135C1160.04 581.956 1111.91 465.739 1026.22 380.052C940.532 294.365 824.315 246.227 703.135 246.227ZM928.346 709.622C956.308 709.622 977.863 732.215 972.681 757.776C962.021 810.36 936.113 859.105 897.609 897.609C846.032 949.186 776.077 978.163 703.135 978.163C630.194 978.163 560.239 949.186 508.662 897.609C470.158 859.105 444.25 810.36 433.59 757.776C428.408 732.215 449.963 709.622 477.925 709.622C505.132 709.622 527.692 732.505 537.395 760.525C546 785.374 560.165 808.21 579.113 827.158C612.006 860.05 656.618 878.53 703.135 878.53C749.653 878.53 794.265 860.051 827.158 827.158C846.106 808.21 860.271 785.374 868.876 760.525C878.579 732.505 901.139 709.622 928.346 709.622Z" fill="black" stroke="black" stroke-width="12.973"/>
</svg>
